<svg width="194" height="265" viewBox="0 0 194 265" fill="none" xmlns="http://www.w3.org/2000/svg">
<path fill-rule="evenodd" clip-rule="evenodd" d="M193.651 3.2536e-05L145.719 66.0789L193.537 132H193.651L193.594 132.079L193.651 132.158H193.537L145.719 198.079L193.651 264.158L97.7871 264.158L0 264.158L48.8935 198.079L0.11663 132.158H0L0.0583149 132.079L0 132H0.11663L48.8936 66.0789L0 2.86102e-05L97.7871 0L193.651 3.2536e-05Z" fill="#77CD8E"/>
<path d="M101.568 127.433C104.987 142.728 102.872 156.219 85.2245 160.164C69.6132 163.654 57.6103 153.32 54.1911 138.025C50.7718 122.731 58.8601 107.904 72.8424 104.778C89.5397 101.045 98.1488 112.139 101.568 127.433Z" fill="#E5E5E5"/>
<path d="M93.2872 129.285C96.7065 144.579 104.365 155.885 122.013 151.94C137.624 148.45 144.083 133.988 140.664 118.693C137.245 103.399 123.613 93.428 109.631 96.5539C92.9334 100.287 89.868 113.99 93.2872 129.285Z" fill="#E5E5E5"/>
<ellipse cx="83.6262" cy="132.562" rx="15.3012" ry="17.805" transform="rotate(-12.6018 83.6262 132.562)" fill="#191919"/>
<ellipse cx="121.636" cy="124.065" rx="15.3012" ry="17.805" transform="rotate(-12.6018 121.636 124.065)" fill="#191919"/>
</svg>
