<svg width="288" height="185" viewBox="0 0 288 185" fill="none" xmlns="http://www.w3.org/2000/svg">
<path d="M157.79 92.2324C157.79 143.171 141.513 184.465 82.7379 184.465C30.7441 184.465 0 143.171 0 92.2324C0 41.2938 36.1696 0 82.7379 0C138.349 0 157.79 41.2938 157.79 92.2324Z" fill="#E5E5E5"/>
<path d="M130.21 92.2324C130.21 143.171 146.487 184.465 205.262 184.465C257.256 184.465 288 143.171 288 92.2324C288 41.2938 251.83 0 205.262 0C149.651 0 130.21 41.2938 130.21 92.2324Z" fill="#E5E5E5"/>
<ellipse cx="81.3811" cy="92.2321" rx="49.7331" ry="57.8713" fill="#191919"/>
<ellipse cx="207.975" cy="92.2321" rx="49.7331" ry="57.8713" fill="#191919"/>
</svg>
