<svg width="484" height="436" viewBox="0 0 484 436" fill="none" xmlns="http://www.w3.org/2000/svg">
<path fill-rule="evenodd" clip-rule="evenodd" d="M421.245 3.05176e-05C421.245 93.1981 340.186 168.75 240.194 168.75C140.203 168.75 59.1436 93.1981 59.1436 3.05176e-05H421.245Z" fill="#FBCFCF"/>
<path fill-rule="evenodd" clip-rule="evenodd" d="M0 3.05176e-05C0 124.264 108.079 225 241.401 225C374.723 225 482.802 124.264 482.802 3.05176e-05L362.101 0C362.101 62.132 308.062 112.5 241.401 112.5C174.74 112.5 120.7 62.132 120.7 0L0 3.05176e-05Z" fill="#C0BFBE"/>
<path fill-rule="evenodd" clip-rule="evenodd" d="M484 210.648H363.25C363.25 272.805 309.189 323.194 242.5 323.194C175.812 323.194 121.75 272.805 121.75 210.648H1C1 334.963 109.123 435.74 242.5 435.74C375.877 435.74 484 334.963 484 210.648Z" fill="#CAEAE6"/>
</svg>
