<svg width="358" height="393" viewBox="0 0 358 393" fill="none" xmlns="http://www.w3.org/2000/svg">
<path fill-rule="evenodd" clip-rule="evenodd" d="M289.563 106.32C331.158 95.4192 357.864 78.5118 357.864 59.5292C357.864 26.6521 277.754 0 178.932 0C80.1107 0 0 26.6521 0 59.5292C0 78.5118 26.7065 95.4192 68.3012 106.32C26.7065 117.22 0 134.127 0 153.11C0 170.203 21.6547 185.614 56.3351 196.471C21.6547 207.328 0 222.739 0 239.832C0 258.814 26.7065 275.722 68.3012 286.622C26.7065 297.522 0 314.43 0 333.413C0 366.29 80.1107 392.942 178.932 392.942C277.754 392.942 357.864 366.29 357.864 333.413C357.864 314.43 331.158 297.522 289.563 286.622C331.158 275.722 357.864 258.814 357.864 239.832C357.864 222.739 336.21 207.328 301.529 196.471C336.21 185.614 357.864 170.203 357.864 153.11C357.864 134.127 331.158 117.22 289.563 106.32Z" fill="#F1CB5E"/>
<path d="M177.001 347L126 278L227 278L177.001 347Z" fill="#77CD8E"/>
<path d="M177.001 278L126 209L227 209L177.001 278Z" fill="#77CD8E"/>
<path d="M177.001 206L126 137L227 137L177.001 206Z" fill="#77CD8E"/>
<path d="M177.001 137L126 68L227 68L177.001 137Z" fill="#77CD8E"/>
</svg>
