<svg width="475" height="433" viewBox="0 0 475 433" fill="none" xmlns="http://www.w3.org/2000/svg">
<path fill-rule="evenodd" clip-rule="evenodd" d="M414.438 0.635788C414.438 92.3278 334.689 166.659 236.313 166.659C137.937 166.659 58.188 92.3278 58.188 0.635788H414.438Z" fill="#ECB8C4"/>
<path fill-rule="evenodd" clip-rule="evenodd" d="M0 0.635818C0 122.892 106.332 222 237.5 222C368.668 222 475 122.892 475 0.635818L356.25 0.635773C356.25 61.7638 303.084 111.318 237.5 111.318C171.916 111.318 118.75 61.7638 118.75 0.635773L0 0.635818Z" fill="#749AEE"/>
<path fill-rule="evenodd" clip-rule="evenodd" d="M0 211.376C0 211.376 0 211.376 0 211.376C0 333.632 106.332 432.74 237.5 432.74C368.668 432.74 475 333.632 475 211.376L356.25 211.376C356.25 211.376 356.25 211.376 356.25 211.376C356.25 272.504 303.084 322.058 237.5 322.058C171.917 322.058 118.75 272.504 118.75 211.376C118.75 211.376 118.75 211.376 118.75 211.376H0Z" fill="#F1CB5E"/>
</svg>
