<?xml version="1.0" encoding="UTF-8"?>
<svg width="47px" height="65px" viewBox="0 0 47 65" version="1.1" xmlns="http://www.w3.org/2000/svg" xmlns:xlink="http://www.w3.org/1999/xlink">
    <!-- Generator: Sketch 48.2 (47327) - http://www.bohemiancoding.com/sketch -->
    <title>LDN</title>
    <desc>Created with Sketch.</desc>
    <defs></defs>
    <g id="iPhone-7-Copy" stroke="none" stroke-width="1" fill="none" fill-rule="evenodd" transform="translate(-164.000000, -415.000000)">
        <g id="Group-4" transform="translate(42.000000, 420.000000)" stroke="#3F524F" stroke-width="2">
            <g id="LDN" transform="translate(123.000000, 0.000000)">
                <g id="Gherkin" transform="translate(0.000000, 24.000000)">
                    <path d="M0.691604991,34.7959139 C0.567918664,33.7282639 0.312333154,32.9102415 0.21988138,31.8408726 C0.00630964591,29.3712714 -0.0489611165,26.8946671 0.0422387712,24.4180628 C0.0808594511,23.3708491 0.186518621,22.3238263 0.310204948,21.2827242 C0.596699035,18.8694659 1.02459364,16.4809094 1.63050641,14.1280048 C2.1956077,11.9336243 2.90686668,9.78902928 3.77817926,7.69975851 C4.50458605,5.95790373 5.35599365,4.28703463 6.47079805,2.76513995 C7.07458261,1.94081481 7.73864549,1.1727689 8.57352819,0.580563744 C9.23151942,0.113840887 10.1187667,-0.086536884 10.9329307,0.0346162462 C11.5461044,0.125847164 12.2433356,0.20991029 12.7353893,0.580563744 C13.7061642,1.31193903 14.1282143,1.77235912 14.8246384,2.76513995 C16.1893819,4.7105931 17.31382,7.41237794 18.2182449,9.61407983 C19.4519159,12.617315 20.391957,15.7140731 20.9880425,18.912121 C21.2273405,20.1961659 21.4047953,21.4937077 21.5654749,22.7908674 C21.8286213,24.9147716 21.9152518,27.0505809 21.8395753,29.1895735 C21.8058995,30.1419912 21.7257788,31.0940269 21.6308859,32.0426247 C21.5388723,32.9628282 21.4010396,33.8783843 21.283112,34.7959139 C21.2698003,34.899135 14.4059646,34.899135 0.691604991,34.7959139 Z" id="Fill-1"></path>
                    <path d="M16.2132353,6.39423077 L4.96323529,6.39423077" id="Line" stroke-linecap="square"></path>
                    <path d="M1.94447624,12.8572709 C7.25911702,20.1048185 13.5647707,23.7013999 20.8614372,23.647015" id="Path-6"></path>
                    <path d="M0,22.8846154 C4.16451725,29.7455233 11.0576493,33.2731368 20.6793961,33.4674558" id="Path-7"></path>
                    <path d="M7.92389771,7.01991067 C10.5304508,11.702509 14.3135126,14.0228791 19.273083,13.9810211" id="Path-5"></path>
                </g>
                <g id="Shard" transform="translate(21.000000, 0.200012)">
                    <polygon id="Path-8" points="7.87882954 7.64154663 0.164841379 58.6478571 22.5715373 58.6478571"></polygon>
                    <polygon id="Path-9" fill="#FFFFFF" points="16.9195495 0 10.0919183 23.5821515 7.27085781 58.6067121 23.8445395 58.6067121"></polygon>
                    <path d="M20.1601058,36.9597701 L9.58431257,36.9597701" id="Line-8" stroke-linecap="square"></path>
                    <path d="M21.4820799,47.8103448 L8.9233255,47.8103448" id="Line-8" stroke-linecap="square"></path>
                    <path d="M18.1771445,25.4310345 L10.2452996,25.4310345" id="Line-8" stroke-linecap="square"></path>
                </g>
            </g>
        </g>
    </g>
</svg>