<svg width="156" height="154" viewBox="0 0 156 154" fill="none" xmlns="http://www.w3.org/2000/svg">
<path fill-rule="evenodd" clip-rule="evenodd" d="M103.45 54.5256C106.604 51.0061 108.842 46.587 109.709 41.5867C112.172 27.3893 102.66 13.8832 88.4624 11.42C74.265 8.9569 60.7589 18.4694 58.2957 32.6669C57.6141 36.5956 57.8496 40.4714 58.8475 44.0749C55.0147 39.3628 49.5283 35.9604 43.0737 34.8406C28.8762 32.3775 15.3701 41.89 12.907 56.0875C10.4438 70.2849 19.9564 83.791 34.1538 86.2541C36.1854 86.6066 38.2028 86.7138 40.1757 86.5972C30.3013 88.9185 22.2729 96.9198 20.4295 107.545C17.9663 121.742 27.4789 135.249 41.6763 137.712C53.6982 139.797 65.2244 133.296 69.97 122.635C70.8471 134.272 79.5099 144.276 91.5318 146.361C105.729 148.824 119.235 139.312 121.698 125.114C123.527 114.572 118.753 104.411 110.361 98.8693C112.064 99.5618 113.868 100.084 115.753 100.411C129.951 102.874 143.457 93.3616 145.92 79.1641C148.383 64.9667 138.871 51.4606 124.673 48.9974C116.827 47.6362 109.192 49.9324 103.516 54.6556L103.45 54.5256Z" fill="#749AEE"/>
<path d="M80.901 78.1974C78.1413 88.4967 72.6132 95.9642 60.7293 92.7799C50.2166 89.963 46.2376 79.9481 48.9973 69.6488C51.757 59.3495 61.3073 52.9598 70.723 55.4827C81.967 58.4956 83.6607 67.8981 80.901 78.1974Z" fill="#E5E5E5"/>
<path d="M75.324 76.703C72.5644 87.0024 73.6181 96.2334 85.502 99.4177C96.0147 102.235 104.468 95.5509 107.228 85.2516C109.987 74.9523 104.911 64.6435 95.4957 62.1205C84.2517 59.1077 78.0837 66.4037 75.324 76.703Z" fill="#E5E5E5"/>
<ellipse cx="62.4516" cy="77.0576" rx="10.4103" ry="12.1138" transform="rotate(15 62.4516 77.0576)" fill="#191919"/>
<ellipse cx="88.0482" cy="83.916" rx="10.4103" ry="12.1138" transform="rotate(15 88.0482 83.916)" fill="#191919"/>
</svg>
