<svg width="194" height="45" viewBox="0 0 194 45" fill="none" xmlns="http://www.w3.org/2000/svg">
<path fill-rule="evenodd" clip-rule="evenodd" d="M85.1897 0H12.7695C12.7696 18.6396 28.9814 33.7499 48.9796 33.7499C68.9779 33.7499 85.1897 18.6396 85.1897 0Z" fill="#ECB8C4"/>
<path fill-rule="evenodd" clip-rule="evenodd" d="M0.941406 0C0.941444 24.8528 22.5572 44.9999 49.2215 44.9999C75.8859 44.9999 97.5016 24.8528 97.5016 0H73.3626C73.3626 2.28882e-05 73.3626 4.57764e-05 73.3626 6.86646e-05C73.3626 12.4265 62.5547 22.5 49.2225 22.5C35.8903 22.5 25.0825 12.4265 25.0825 6.86646e-05C25.0825 4.57764e-05 25.0825 2.28882e-05 25.0825 0H0.941406Z" fill="#749AEE"/>
<path fill-rule="evenodd" clip-rule="evenodd" d="M97.4404 0C97.4405 24.8528 119.056 44.9999 145.721 44.9999C172.385 44.9999 194.001 24.8528 194.001 0H169.859C169.859 2.28882e-05 169.859 4.19617e-05 169.859 6.48499e-05C169.859 12.4265 159.052 22.5 145.719 22.5C132.387 22.5 121.579 12.4265 121.579 6.48499e-05C121.579 4.19617e-05 121.579 2.28882e-05 121.579 0H97.4404Z" fill="#F1CB5E"/>
</svg>
