<svg width="220" height="198" viewBox="0 0 220 198" fill="none" xmlns="http://www.w3.org/2000/svg">
<g filter="url(#filter0_d)">
<path fill-rule="evenodd" clip-rule="evenodd" d="M16 78.0002C16 126.143 57.9758 165.17 109.756 165.17C161.535 165.17 203.511 126.143 203.511 78.0002L156.634 78.0002C156.634 102.072 135.646 121.585 109.756 121.585C83.8658 121.585 62.8779 102.072 62.8779 78.0002L16 78.0002Z" fill="#C4E8E3"/>
</g>
<path fill-rule="evenodd" clip-rule="evenodd" d="M177.513 -7.62939e-06C177.513 35.5436 146.434 64.3574 108.095 64.3574C69.7564 64.3574 38.6768 35.5436 38.6768 -7.62939e-06H177.513Z" fill="#FACACA"/>
<path fill-rule="evenodd" clip-rule="evenodd" d="M201.115 3.05176e-05C201.115 47.3915 159.676 85.8099 108.558 85.8099C57.4395 85.8099 16 47.3915 16 3.05176e-05L62.2789 7.62939e-05C62.2789 9.91821e-05 62.2789 0.0001297 62.2789 0.000152588C62.2789 23.6959 82.9986 42.9051 108.558 42.9051C134.117 42.9051 154.837 23.6959 154.837 0.000152588L201.115 3.05176e-05Z" fill="#B9B8B7"/>
<defs>
<filter id="filter0_d" x="0" y="78.0001" width="219.511" height="119.17" filterUnits="userSpaceOnUse" color-interpolation-filters="sRGB">
<feFlood flood-opacity="0" result="BackgroundImageFix"/>
<feColorMatrix in="SourceAlpha" type="matrix" values="0 0 0 0 0 0 0 0 0 0 0 0 0 0 0 0 0 0 127 0"/>
<feOffset dy="16"/>
<feGaussianBlur stdDeviation="8"/>
<feColorMatrix type="matrix" values="0 0 0 0 0 0 0 0 0 0 0 0 0 0 0 0 0 0 0.05 0"/>
<feBlend mode="normal" in2="BackgroundImageFix" result="effect1_dropShadow"/>
<feBlend mode="normal" in="SourceGraphic" in2="effect1_dropShadow" result="shape"/>
</filter>
</defs>
</svg>
