<svg width="214" height="197" viewBox="0 0 214 197" fill="none" xmlns="http://www.w3.org/2000/svg">
<path fill-rule="evenodd" clip-rule="evenodd" d="M209.386 95.5011L150.674 114.28L183.129 161.641L128.409 141.804L111.144 192.058L89.5516 143.686L37.0266 168.635L64.8098 118.39L4.572 105.305L64.3396 85.8585L30.7154 36.7922L84.8754 56.4259L102.185 4.91287L124.739 54.5356L176.818 29.7982L148.034 81.8521L209.386 95.5011Z" fill="#62C37C"/>
<path d="M115.901 92.1975C113.141 102.497 107.613 109.964 95.7293 106.78C85.2166 103.963 81.2376 93.9483 83.9973 83.6489C86.757 73.3496 96.3073 66.9599 105.723 69.4829C116.967 72.4957 118.661 81.8982 115.901 92.1975Z" fill="#E5E5E5"/>
<path d="M110.324 90.703C107.564 101.002 108.618 110.233 120.502 113.418C131.015 116.235 139.468 109.551 142.228 99.2516C144.987 88.9523 139.911 78.6435 130.496 76.1205C119.252 73.1077 113.084 80.4037 110.324 90.703Z" fill="#E5E5E5"/>
<ellipse cx="100.452" cy="88.0576" rx="10.4103" ry="12.1138" transform="rotate(15 100.452 88.0576)" fill="#191919"/>
<ellipse cx="126.048" cy="94.916" rx="10.4103" ry="12.1138" transform="rotate(15 126.048 94.916)" fill="#191919"/>
</svg>
