<svg width="131" height="83" viewBox="0 0 131 83" fill="none" xmlns="http://www.w3.org/2000/svg">
<mask id="path-1-inside-1" fill="white">
<path fill-rule="evenodd" clip-rule="evenodd" d="M95.5546 67.1584C99.1886 76.8058 104.825 83 111.154 83C122.115 83 131 64.4198 131 41.5C131 18.5802 122.115 -3.88393e-07 111.154 -8.67501e-07C104.825 -1.14413e-06 99.1886 6.19423 95.5546 15.8415C91.9206 6.19423 86.2838 -1.95461e-06 79.9552 -2.23124e-06C74.2567 -2.48033e-06 69.1192 5.02222 65.4996 13.0655C61.88 5.02223 56.7425 -7.68673e-08 51.0439 -3.25957e-07C44.7156 -6.02578e-07 39.079 6.19377 35.445 15.8405C31.811 6.19377 26.1745 2.31732e-07 19.8461 -4.48886e-08C8.88541 -5.23996e-07 -8.12168e-07 18.5802 -1.81402e-06 41.5C-2.81588e-06 64.4198 8.88541 83 19.8461 83C26.1745 83 31.811 76.8062 35.445 67.1595C39.079 76.8062 44.7156 83 51.0439 83C56.7425 83 61.88 77.9778 65.4996 69.9345C69.1192 77.9778 74.2567 83 79.9552 83C86.2838 83 91.9206 76.8058 95.5546 67.1584Z"/>
</mask>
<path d="M95.5546 67.1584L97.4262 66.4534L95.5546 61.4848L93.6829 66.4534L95.5546 67.1584ZM95.5546 15.8415L93.6829 16.5466L95.5546 21.5152L97.4262 16.5466L95.5546 15.8415ZM65.4996 13.0655L63.6758 13.8862L65.4996 17.939L67.3234 13.8862L65.4996 13.0655ZM35.445 15.8405L33.5734 16.5455L35.445 21.5138L37.3166 16.5455L35.445 15.8405ZM35.445 67.1595L37.3166 66.4545L35.445 61.4862L33.5734 66.4545L35.445 67.1595ZM65.4996 69.9345L67.3234 69.1138L65.4996 65.061L63.6758 69.1138L65.4996 69.9345ZM111.154 81C108.69 81 106.187 79.8025 103.784 77.3091C101.374 74.809 99.1808 71.1114 97.4262 66.4534L93.6829 67.8635C95.5624 72.8528 98.0041 77.076 100.904 80.0848C103.81 83.1004 107.289 85 111.154 85L111.154 81ZM129 41.5C129 52.7287 126.819 62.7963 123.383 69.9821C119.877 77.3143 115.422 81 111.154 81L111.154 85C117.847 85 123.315 79.3956 126.992 71.7078C130.738 63.8735 133 53.1911 133 41.5L129 41.5ZM111.154 2C115.422 2 119.877 5.68572 123.383 13.0179C126.819 20.2037 129 30.2713 129 41.5L133 41.5C133 29.8089 130.738 19.1265 126.992 11.2922C123.315 3.60437 117.847 -2 111.154 -2L111.154 2ZM97.4262 16.5466C99.1808 11.8886 101.374 8.19102 103.784 5.69087C106.187 3.19749 108.69 2 111.154 2L111.154 -2C107.289 -2 103.81 -0.100374 100.904 2.91519C98.0041 5.92398 95.5624 10.1472 93.6829 15.1365L97.4262 16.5466ZM79.9552 2C82.4189 2 84.9224 3.19749 87.3253 5.69087C89.7347 8.19102 91.9284 11.8886 93.6829 16.5466L97.4262 15.1365C95.5468 10.1472 93.1051 5.92398 90.2055 2.91519C87.2994 -0.100374 83.8202 -2 79.9552 -2L79.9552 2ZM67.3234 13.8862C70.872 6.00076 75.5136 2 79.9552 2L79.9552 -2C72.9998 -2 67.3663 4.04369 63.6758 12.2447L67.3234 13.8862ZM51.0439 2C55.4856 2 60.1272 6.00076 63.6758 13.8862L67.3234 12.2447C63.6328 4.04369 57.9994 -2 51.0439 -2L51.0439 2ZM37.3166 16.5455C39.0712 11.8879 41.2648 8.19056 43.6742 5.69059C46.077 3.1974 48.5804 2 51.0439 2L51.0439 -2C47.1791 -2 43.7001 -0.100514 40.794 2.91485C37.8945 5.92345 35.4529 10.1463 33.5734 15.1354L37.3166 16.5455ZM19.8461 2C22.3096 2 24.8131 3.1974 27.2159 5.69059C29.6252 8.19056 31.8188 11.8879 33.5734 16.5455L37.3166 15.1354C35.4372 10.1463 32.9956 5.92345 30.096 2.91485C27.19 -0.100513 23.7109 -2 19.8461 -2L19.8461 2ZM2 41.5C2 30.2713 4.18072 20.2037 7.61709 13.0179C11.1235 5.68573 15.5784 2 19.8461 2L19.8461 -2C13.1531 -2 7.68498 3.60436 4.0085 11.2922C0.261983 19.1265 -2 29.8089 -2 41.5L2 41.5ZM19.8461 81C15.5784 81 11.1235 77.3143 7.61709 69.9821C4.18072 62.7963 2 52.7287 2 41.5L-2 41.5C-2 53.1911 0.261981 63.8735 4.00849 71.7078C7.68498 79.3956 13.1531 85 19.8461 85L19.8461 81ZM33.5734 66.4545C31.8188 71.1121 29.6252 74.8094 27.2159 77.3094C24.8131 79.8026 22.3096 81 19.8461 81L19.8461 85C23.7109 85 27.19 83.1005 30.096 80.0851C32.9955 77.0766 35.4372 72.8537 37.3166 67.8646L33.5734 66.4545ZM51.0439 81C48.5804 81 46.077 79.8026 43.6742 77.3094C41.2648 74.8094 39.0712 71.1121 37.3166 66.4545L33.5734 67.8646C35.4529 72.8537 37.8945 77.0765 40.794 80.0851C43.7001 83.1005 47.1791 85 51.0439 85L51.0439 81ZM63.6758 69.1138C60.1272 76.9992 55.4856 81 51.0439 81L51.0439 85C57.9994 85 63.6328 78.9563 67.3234 70.7553L63.6758 69.1138ZM79.9552 81C75.5136 81 70.872 76.9992 67.3234 69.1138L63.6758 70.7553C67.3663 78.9563 72.9998 85 79.9552 85L79.9552 81ZM93.6829 66.4534C91.9284 71.1114 89.7347 74.809 87.3253 77.3091C84.9224 79.8025 82.4189 81 79.9552 81L79.9552 85C83.8202 85 87.2994 83.1004 90.2055 80.0848C93.1051 77.076 95.5468 72.8528 97.4262 67.8635L93.6829 66.4534Z" fill="black" mask="url(#path-1-inside-1)"/>
</svg>
