<svg id="Layer_1" data-name="Layer 1" xmlns="http://www.w3.org/2000/svg" viewBox="0 0 694.97 954.62"><defs><style>.cls-1{fill:#161616;}</style></defs><rect class="cls-1" x="158.66" y="251.81" width="30.11" height="84.89" transform="translate(176.5 19.04) rotate(18.63)"/><rect class="cls-1" x="197.3" y="465.82" width="30.11" height="84.89" transform="translate(445.74 40.29) rotate(39.56)"/><rect class="cls-1" x="213.28" y="342.04" width="30.11" height="84.89" transform="translate(673.43 195.02) rotate(86.93)"/><rect class="cls-1" x="435.79" y="623.77" width="30.11" height="84.89" transform="translate(1089.81 153.3) rotate(78.76)"/><rect class="cls-1" x="324.13" y="305.71" width="30.11" height="84.89" transform="translate(898.33 390.04) rotate(132.22)"/><rect class="cls-1" x="302.94" y="429.61" width="30.11" height="84.89" transform="translate(767.13 958.69) rotate(172.65)"/><rect class="cls-1" x="425.73" y="366.11" width="30.11" height="84.89" transform="translate(875.43 947.99) rotate(-169.78)"/><rect class="cls-1" x="425.73" y="251.81" width="30.11" height="84.89" transform="translate(311.45 843.05) rotate(-101.24)"/><rect class="cls-1" x="413.52" y="511.65" width="30.11" height="84.89" transform="matrix(0.5, -0.87, 0.87, 0.5, -192.2, 707.32)"/><rect class="cls-1" x="263.29" y="537.05" width="30.11" height="84.89" transform="translate(-79.41 1115.48) rotate(-112.23)"/><rect class="cls-1" x="347.59" y="179.84" width="30.11" height="84.89" transform="translate(574.03 683.73) rotate(-140.44)"/><rect class="cls-1" x="235.66" y="200.81" width="30.11" height="84.89" transform="translate(617.42 492.1) rotate(168.76)"/><rect class="cls-1" x="455.72" y="131.49" width="30.11" height="84.89" transform="translate(1045.75 215.98) rotate(157.77)"/><rect class="cls-1" x="112.6" y="388.43" width="30.11" height="84.89" transform="translate(629.16 626.59) rotate(124.2)"/><rect class="cls-1" x="490.75" y="437.79" width="30.11" height="84.89" transform="translate(951.64 -50.34) rotate(78.76)"/><rect class="cls-1" x="349.75" y="572.09" width="30.11" height="84.89" transform="translate(136.74 25.68) rotate(5.75)"/><rect class="cls-1" x="235.66" y="643.47" width="30.11" height="84.89" transform="translate(533.87 45.51) rotate(36.77)"/><rect class="cls-1" x="136.73" y="600.16" width="30.11" height="84.89" transform="translate(114.52 50.77) rotate(3.64)"/><rect class="cls-1" x="77.88" y="491.39" width="30.11" height="84.89" transform="translate(582.17 245.55) rotate(60)"/><rect class="cls-1" x="543.25" y="525.65" width="30.11" height="84.89" transform="translate(844.52 -140.34) rotate(60)"/><rect class="cls-1" x="315.29" y="702.98" width="30.11" height="84.89" transform="translate(-65.55 137.79) rotate(-11.24)"/><rect class="cls-1" x="279.9" y="81.57" width="30.11" height="84.89" transform="translate(54.87 118.98) rotate(-11.24)"/><rect class="cls-1" x="45.19" y="630.81" width="30.11" height="84.89" transform="translate(-56.67 83.77) rotate(-11.24)"/><rect class="cls-1" x="543.25" y="666.12" width="30.11" height="84.89" transform="translate(935.19 -81.82) rotate(57.9)"/><rect class="cls-1" x="523.78" y="325.4" width="30.11" height="84.89" transform="matrix(-0.81, 0.59, -0.59, -0.81, 1264.3, 405.85)"/><rect class="cls-1" x="52.96" y="265.82" width="30.11" height="84.89" transform="translate(362.84 592.36) rotate(147.9)"/><rect class="cls-1" x="96.87" y="170.81" width="30.11" height="84.89" transform="translate(340.38 88.1) rotate(67.77)"/><rect class="cls-1" x="425.73" y="712.66" width="30.11" height="84.89" transform="translate(1046.42 120.55) rotate(67.77)"/><rect class="cls-1" x="155.38" y="73.18" width="30.11" height="84.89" transform="translate(441.51 116.99) rotate(129.56)"/><rect class="cls-1" x="529.03" y="771.74" width="30.11" height="84.89" transform="translate(1591.7 972.4) rotate(129.56)"/><rect class="cls-1" x="565.87" y="201.6" width="30.11" height="84.89" transform="translate(416.1 -280.18) rotate(45)"/><rect class="cls-1" x="136.73" y="712.66" width="30.11" height="84.89" transform="translate(972.15 1001.95) rotate(115.47)"/><rect class="cls-1" x="8.16" y="420.28" width="30.11" height="84.89" transform="matrix(0.95, 0.32, -0.32, 0.95, 222.44, 75.95)"/><rect class="cls-1" x="213.28" y="-23.72" width="30.11" height="84.89" transform="translate(91.33 -12.85) rotate(18.63)"/><rect class="cls-1" x="230.45" y="792.46" width="30.11" height="84.89" transform="translate(352.99 24.44) rotate(18.63)"/><rect class="cls-1" x="388.25" y="32.52" width="30.11" height="84.89" transform="translate(244.52 -204.1) rotate(45)"/><rect class="cls-1" x="529.03" y="81.57" width="30.11" height="84.89" transform="translate(145.05 480.17) rotate(-45)"/><rect class="cls-1" x="372.86" y="812.4" width="30.11" height="84.89" transform="translate(791.47 35.2) rotate(45)"/><rect class="cls-1" x="64.21" y="792.46" width="30.11" height="84.89" transform="translate(-296.58 185.82) rotate(-26.96)"/><rect class="cls-1" x="-4.92" y="115.73" width="30.11" height="84.89" transform="translate(188.2 98.28) rotate(45)"/><rect class="cls-1" x="36.66" y="23.46" width="30.11" height="84.89" transform="translate(41.35 122.91) rotate(-50.44)"/><rect class="cls-1" x="512.6" y="-25.63" width="30.11" height="84.89" transform="translate(785.55 -418.69) rotate(108.63)"/><rect class="cls-1" x="324.13" y="-57.54" width="30.11" height="84.89" transform="translate(78.1 102.36) rotate(-7.35)"/><rect class="cls-1" x="-45.25" y="719.34" width="30.11" height="84.89" transform="translate(805.51 810.27) rotate(86.93)"/><rect class="cls-1" x="112.6" y="-45.46" width="30.11" height="84.89" transform="translate(191.19 -71.21) rotate(86.93)"/></svg>