<svg xmlns="http://www.w3.org/2000/svg" xmlns:xlink="http://www.w3.org/1999/xlink" viewBox="0 0 400 400"><defs><style>.cls-1{fill:none;}.cls-2{clip-path:url(#clip-path);}.cls-3{fill:#161616;}.cls-4{clip-path:url(#clip-path-2);}.cls-5{clip-path:url(#clip-path-3);}.cls-6{clip-path:url(#clip-path-4);}.cls-7{clip-path:url(#clip-path-5);}.cls-8{clip-path:url(#clip-path-6);}.cls-9{clip-path:url(#clip-path-7);}.cls-10{clip-path:url(#clip-path-8);}</style><clipPath id="clip-path"><rect class="cls-1" x="-420" width="399.91" height="399.91"/></clipPath><clipPath id="clip-path-2"><rect class="cls-1" width="399.91" height="399.91"/></clipPath><clipPath id="clip-path-3"><rect class="cls-1" y="200.04" width="399.91" height="399.91"/></clipPath><clipPath id="clip-path-4"><rect class="cls-1" x="200.04" y="200" width="399.91" height="399.91"/></clipPath><clipPath id="clip-path-5"><rect class="cls-1" x="-199.96" y="200" width="399.91" height="399.91"/></clipPath><clipPath id="clip-path-6"><rect class="cls-1" x="0.04" y="-199.96" width="399.91" height="399.91"/></clipPath><clipPath id="clip-path-7"><rect class="cls-1" x="200.09" y="-200" width="399.91" height="399.91"/></clipPath><clipPath id="clip-path-8"><rect class="cls-1" x="-199.91" y="-200" width="399.91" height="399.91"/></clipPath></defs><g id="Layer_1" data-name="Layer 1"><g class="cls-2"><rect class="cls-3" x="-60.28" y="390.92" width="61.51" height="21.82" transform="translate(-204.87 39.08) rotate(-30)"/><rect class="cls-3" x="-43.88" y="156.12" width="61.51" height="21.82" transform="translate(-121.96 39.64) rotate(-45)"/></g></g><g id="Layer_2" data-name="Layer 2"><g class="cls-4"><g class="cls-5"><g class="cls-6"><rect class="cls-3" x="393.15" y="389" width="61.51" height="21.82" transform="translate(-69.81 90.28) rotate(-11.24)"/><rect class="cls-3" x="313.19" y="359.64" width="21.82" height="61.51" transform="translate(-69.87 70.64) rotate(-11.24)"/><rect class="cls-3" x="304.52" y="290.14" width="61.51" height="21.82" transform="translate(-88.97 149.2) rotate(-22.23)"/></g><g class="cls-7"><rect class="cls-3" x="-6.85" y="389" width="61.51" height="21.82" transform="translate(-77.48 12.33) rotate(-11.24)"/><rect class="cls-3" x="66.02" y="318.06" width="61.51" height="21.82" transform="translate(-218.48 194.06) rotate(-50.44)"/><rect class="cls-3" x="10.9" y="249.69" width="21.82" height="61.51" transform="translate(-54.24 9.63) rotate(-11.24)"/></g><rect class="cls-3" x="152.13" y="354.14" width="61.51" height="21.82" transform="translate(-204.56 236.24) rotate(-45)"/></g><g class="cls-8"><g class="cls-9"><rect class="cls-3" x="310.56" y="55.19" width="21.82" height="61.51" transform="translate(390.08 -239.66) rotate(86.93)"/><rect class="cls-3" x="393.19" y="-11" width="61.51" height="21.82" transform="translate(8.15 82.62) rotate(-11.24)"/><rect class="cls-3" x="313.23" y="-40.36" width="21.82" height="61.51" transform="translate(8.09 62.98) rotate(-11.24)"/><rect class="cls-3" x="201.42" y="158.38" width="61.51" height="21.82" transform="matrix(0.87, -0.5, 0.5, 0.87, -53.54, 138.77)"/><rect class="cls-3" x="214.77" y="13.68" width="21.82" height="61.51" transform="translate(10.89 126.73) rotate(-32.1)"/></g><g class="cls-10"><rect class="cls-3" x="5.54" y="101.49" width="21.82" height="61.51" transform="translate(-16.77 3.19) rotate(-7.35)"/><rect class="cls-3" x="93.34" y="75.81" width="61.51" height="21.82" transform="translate(16.72 193.45) rotate(-79.78)"/><rect class="cls-3" x="-6.81" y="-11" width="61.51" height="21.82" transform="translate(0.48 4.66) rotate(-11.24)"/></g></g><rect class="cls-3" x="94.18" y="173.93" width="21.82" height="61.51" transform="translate(-124.72 193.35) rotate(-60)"/><rect class="cls-3" x="206.26" y="220.56" width="21.82" height="61.51" transform="translate(-114.9 258.67) rotate(-50.44)"/><rect class="cls-3" x="309.12" y="199.12" width="61.51" height="21.82" transform="translate(-38.51 338.28) rotate(-50.44)"/></g></g></svg>