<svg width="97" height="97" viewBox="0 0 97 97" fill="none" xmlns="http://www.w3.org/2000/svg">
<path fill-rule="evenodd" clip-rule="evenodd" d="M88.8947 32.5011C93.7708 29.36 96.9998 23.8828 96.9998 17.6513C96.9998 7.90277 89.0971 0 79.3485 0C72.657 0 66.8351 3.72345 63.8418 9.21148C60.8485 3.72345 55.0267 0 48.3352 0C41.7644 0 36.0322 3.59031 32.9932 8.91619C29.9543 3.59031 24.2221 0 17.6513 0C7.90277 0 0 7.90277 0 17.6513C0 23.8828 3.22903 29.36 8.10512 32.5011C3.22903 35.6422 0 41.1194 0 47.3508C0 54.3003 4.01604 60.3117 9.85387 63.1909C4.01604 66.0702 0 72.0816 0 79.031C0 88.7796 7.90277 96.6824 17.6513 96.6824C24.2221 96.6824 29.9543 93.0921 32.9932 87.7662C36.0322 93.0921 41.7644 96.6824 48.3352 96.6824C55.0267 96.6824 60.8485 92.9589 63.8418 87.4709C66.8351 92.9589 72.657 96.6824 79.3485 96.6824C89.0971 96.6824 96.9998 88.7796 96.9998 79.031C96.9998 72.0816 92.9838 66.0702 87.146 63.1909C92.9838 60.3117 96.9998 54.3003 96.9998 47.3508C96.9998 41.1194 93.7708 35.6422 88.8947 32.5011Z" fill="#EAAABA"/>
</svg>
