<svg width="214" height="83" viewBox="0 0 214 83" fill="none" xmlns="http://www.w3.org/2000/svg">
<mask id="path-1-inside-1" fill="white">
<path fill-rule="evenodd" clip-rule="evenodd" d="M180.232 67.42C183.706 76.9176 189.049 83 195.04 83C205.511 83 214 64.4198 214 41.5C214 18.5802 205.511 -3.71054e-07 195.04 -8.28773e-07C189.049 -1.09066e-06 183.706 6.08243 180.232 15.58C176.757 6.08243 171.415 -1.86145e-06 165.424 -2.12333e-06C159.378 -2.38761e-06 153.993 6.194 150.521 15.841C147.049 6.194 141.664 -8.80235e-07 135.618 -1.14451e-06C130.174 -1.38249e-06 125.266 5.0226 121.808 13.0663C118.35 5.0226 113.441 -8.50115e-07 107.997 -1.08809e-06C107.694 -1.10132e-06 107.393 0.0155141 107.094 0.0462014C106.795 0.0155143 106.494 -1.07118e-06 106.192 -1.08441e-06C100.146 -1.34868e-06 94.7607 6.194 91.2889 15.841C87.8172 6.194 82.4322 -7.59249e-07 76.3862 -1.02353e-06C70.9419 -1.2615e-06 66.0335 5.0226 62.5755 13.0664C59.1175 5.0226 54.2091 -7.29129e-07 48.7648 -9.67107e-07C42.7191 -1.23137e-06 37.3343 6.19345 33.8625 15.8397C30.3907 6.19345 25.006 -6.41964e-07 18.9603 -9.06229e-07C8.48889 -1.36395e-06 0.000151776 18.5802 0.000150774 41.5C0.000149772 64.4198 8.48889 83 18.9603 83C25.0059 83 30.3907 76.8065 33.8625 67.1603C37.3343 76.8065 42.7191 83 48.7648 83C54.2091 83 59.1175 77.9774 62.5755 69.9336C66.0335 77.9774 70.9419 83 76.3862 83C82.4322 83 87.8172 76.806 91.2889 67.159C94.7607 76.806 100.146 83 106.192 83C106.494 83 106.795 82.9845 107.094 82.9538C107.393 82.9845 107.694 83 107.997 83C113.441 83 118.35 77.9774 121.808 69.9336C125.266 77.9774 130.174 83 135.618 83C141.664 83 147.049 76.806 150.521 67.159C153.993 76.806 159.378 83 165.424 83C171.415 83 176.757 76.9176 180.232 67.42Z"/>
</mask>
<path fill-rule="evenodd" clip-rule="evenodd" d="M180.232 67.42C183.706 76.9176 189.049 83 195.04 83C205.511 83 214 64.4198 214 41.5C214 18.5802 205.511 -3.71054e-07 195.04 -8.28773e-07C189.049 -1.09066e-06 183.706 6.08243 180.232 15.58C176.757 6.08243 171.415 -1.86145e-06 165.424 -2.12333e-06C159.378 -2.38761e-06 153.993 6.194 150.521 15.841C147.049 6.194 141.664 -8.80235e-07 135.618 -1.14451e-06C130.174 -1.38249e-06 125.266 5.0226 121.808 13.0663C118.35 5.0226 113.441 -8.50115e-07 107.997 -1.08809e-06C107.694 -1.10132e-06 107.393 0.0155141 107.094 0.0462014C106.795 0.0155143 106.494 -1.07118e-06 106.192 -1.08441e-06C100.146 -1.34868e-06 94.7607 6.194 91.2889 15.841C87.8172 6.194 82.4322 -7.59249e-07 76.3862 -1.02353e-06C70.9419 -1.2615e-06 66.0335 5.0226 62.5755 13.0664C59.1175 5.0226 54.2091 -7.29129e-07 48.7648 -9.67107e-07C42.7191 -1.23137e-06 37.3343 6.19345 33.8625 15.8397C30.3907 6.19345 25.006 -6.41964e-07 18.9603 -9.06229e-07C8.48889 -1.36395e-06 0.000151776 18.5802 0.000150774 41.5C0.000149772 64.4198 8.48889 83 18.9603 83C25.0059 83 30.3907 76.8065 33.8625 67.1603C37.3343 76.8065 42.7191 83 48.7648 83C54.2091 83 59.1175 77.9774 62.5755 69.9336C66.0335 77.9774 70.9419 83 76.3862 83C82.4322 83 87.8172 76.806 91.2889 67.159C94.7607 76.806 100.146 83 106.192 83C106.494 83 106.795 82.9845 107.094 82.9538C107.393 82.9845 107.694 83 107.997 83C113.441 83 118.35 77.9774 121.808 69.9336C125.266 77.9774 130.174 83 135.618 83C141.664 83 147.049 76.806 150.521 67.159C153.993 76.806 159.378 83 165.424 83C171.415 83 176.757 76.9176 180.232 67.42Z" fill="#F1CB5E"/>
<path d="M180.232 67.42L182.11 66.7328L180.232 61.5987L178.354 66.7328L180.232 67.42ZM180.232 15.58L178.354 16.2672L180.232 21.4013L182.11 16.2672L180.232 15.58ZM150.521 15.841L148.639 16.5183L150.521 21.7473L152.403 16.5183L150.521 15.841ZM121.808 13.0663L119.97 13.8562L121.808 18.1303L123.645 13.8562L121.808 13.0663ZM107.094 0.0462014L106.89 2.03576L107.094 2.0567L107.298 2.03576L107.094 0.0462014ZM91.2889 15.841L89.4071 16.5182L91.2889 21.7473L93.1708 16.5182L91.2889 15.841ZM62.5755 13.0664L60.7381 13.8563L62.5755 18.1303L64.4129 13.8563L62.5755 13.0664ZM33.8625 15.8397L31.9807 16.517L33.8625 21.7456L35.7444 16.517L33.8625 15.8397ZM33.8625 67.1603L35.7444 66.483L33.8625 61.2544L31.9807 66.483L33.8625 67.1603ZM62.5755 69.9336L64.4129 69.1437L62.5755 64.8697L60.7381 69.1437L62.5755 69.9336ZM91.2889 67.159L93.1708 66.4818L91.2889 61.2527L89.4071 66.4817L91.2889 67.159ZM107.094 82.9538L107.298 80.9642L107.094 80.9433L106.89 80.9642L107.094 82.9538ZM121.808 69.9336L123.645 69.1437L121.808 64.8697L119.97 69.1437L121.808 69.9336ZM150.521 67.159L152.403 66.4817L150.521 61.2527L148.639 66.4817L150.521 67.159ZM195.04 81C192.772 81 190.433 79.857 188.157 77.4094C185.876 74.9575 183.789 71.3231 182.11 66.7328L178.354 68.1071C180.149 73.0145 182.471 77.1701 185.228 80.1338C187.989 83.1018 191.316 85 195.04 85L195.04 81ZM212 41.5C212 52.7404 209.914 62.8196 206.628 70.0138C203.26 77.385 199.014 81 195.04 81L195.04 85C201.537 85 206.771 79.3249 210.266 71.676C213.841 63.8502 216 53.1795 216 41.5L212 41.5ZM195.04 2C199.014 2 203.26 5.615 206.628 12.9862C209.914 20.1804 212 30.2596 212 41.5L216 41.5C216 29.8205 213.841 19.1498 210.266 11.324C206.771 3.67509 201.537 -2 195.04 -2L195.04 2ZM182.11 16.2672C183.789 11.6769 185.876 8.04252 188.157 5.59059C190.433 3.14297 192.773 2 195.04 2L195.04 -2C191.316 -2 187.989 -0.101756 185.228 2.86624C182.471 5.82992 180.149 9.98554 178.354 14.8929L182.11 16.2672ZM165.424 2C167.691 2 170.03 3.14297 172.307 5.59059C174.588 8.04252 176.674 11.6769 178.354 16.2672L182.11 14.8929C180.315 9.98554 177.993 5.82992 175.236 2.86624C172.475 -0.101756 169.148 -2 165.424 -2L165.424 2ZM152.403 16.5183C154.082 11.8535 156.179 8.15465 158.478 5.65755C160.774 3.16404 163.136 2 165.424 2L165.424 -2C161.666 -2 158.312 -0.0670433 155.536 2.9482C152.763 5.95985 150.432 10.1815 148.639 15.1638L152.403 16.5183ZM135.618 2C137.906 2 140.268 3.16404 142.564 5.65755C144.863 8.15466 146.96 11.8535 148.639 16.5183L152.403 15.1638C150.61 10.1815 148.279 5.95985 145.506 2.9482C142.73 -0.067042 139.377 -2 135.618 -2L135.618 2ZM123.645 13.8562C125.307 9.99111 127.267 6.97583 129.358 4.95498C131.439 2.94355 133.555 2 135.618 2L135.618 -2C132.238 -2 129.177 -0.432251 126.578 2.07855C123.99 4.57994 121.767 8.09783 119.97 12.2764L123.645 13.8562ZM107.997 2C110.061 2 112.176 2.94355 114.257 4.95498C116.349 6.97583 118.309 9.99111 119.97 13.8562L123.645 12.2764C121.849 8.09783 119.625 4.57994 117.037 2.07855C114.439 -0.43225 111.378 -2 107.997 -2L107.997 2ZM107.298 2.03576C107.53 2.012 107.763 2 107.997 2L107.997 -2C107.626 -2 107.257 -1.98097 106.89 -1.94336L107.298 2.03576ZM106.192 2C106.426 2 106.659 2.012 106.89 2.03576L107.298 -1.94336C106.932 -1.98097 106.563 -2 106.192 -2L106.192 2ZM93.1708 16.5182C94.8495 11.8535 96.9472 8.15465 99.2463 5.65755C101.542 3.16404 103.904 2 106.192 2L106.192 -2C102.433 -2 99.0798 -0.0670434 96.3036 2.9482C93.5308 5.95985 91.2001 10.1815 89.4071 15.1638L93.1708 16.5182ZM76.3862 2C78.674 2 81.0358 3.16404 83.3315 5.65755C85.6306 8.15465 87.7283 11.8535 89.4071 16.5182L93.1708 15.1638C91.3778 10.1815 89.0471 5.95985 86.2742 2.9482C83.4981 -0.0670429 80.1444 -2 76.3862 -2L76.3862 2ZM64.4129 13.8563C66.0745 9.99112 68.0345 6.97583 70.1258 4.95498C72.2073 2.94355 74.3226 2 76.3862 2L76.3862 -2C73.0055 -2 69.9445 -0.43225 67.3462 2.07856C64.7577 4.57995 62.5345 8.09784 60.7381 12.2765L64.4129 13.8563ZM48.7648 2C50.8284 2 52.9437 2.94355 55.0252 4.95498C57.1165 6.97583 59.0765 9.99112 60.7381 13.8563L64.4129 12.2765C62.6165 8.09784 60.3933 4.57995 57.8048 2.07856C55.2066 -0.432248 52.1455 -2 48.7648 -2L48.7648 2ZM35.7444 16.517C37.4231 11.8526 39.5208 8.1541 41.8198 5.65722C44.1155 3.16394 46.4771 2 48.7648 2L48.7648 -2C45.0068 -2 41.6532 -0.0672169 38.8772 2.94779C36.1044 5.9592 33.7737 10.1805 31.9807 15.1624L35.7444 16.517ZM18.9603 2C21.248 2 23.6096 3.16394 25.9053 5.65722C28.2043 8.1541 30.302 11.8526 31.9807 16.517L35.7444 15.1624C33.9513 10.1805 31.6207 5.95921 28.8479 2.94779C26.0719 -0.0672144 22.7183 -2 18.9603 -2L18.9603 2ZM2.00015 41.5C2.00015 30.2596 4.08575 20.1804 7.37258 12.9862C10.7403 5.615 14.9857 2 18.9603 2L18.9603 -2C12.4635 -2 7.22885 3.67508 3.73431 11.324C0.158922 19.1498 -1.99985 29.8205 -1.99985 41.5L2.00015 41.5ZM18.9603 81C14.9857 81 10.7403 77.385 7.37258 70.0138C4.08575 62.8196 2.00015 52.7404 2.00015 41.5L-1.99985 41.5C-1.99985 53.1795 0.15892 63.8502 3.73431 71.676C7.22885 79.3249 12.4634 85 18.9603 85L18.9603 81ZM31.9807 66.483C30.302 71.1474 28.2043 74.8459 25.9053 77.3428C23.6096 79.8361 21.248 81 18.9603 81L18.9603 85C22.7183 85 26.0718 83.0672 28.8479 80.0522C31.6207 77.0408 33.9513 72.8195 35.7444 67.8376L31.9807 66.483ZM48.7648 81C46.4771 81 44.1155 79.8361 41.8198 77.3428C39.5208 74.8459 37.4231 71.1474 35.7444 66.483L31.9807 67.8376C33.7737 72.8195 36.1044 77.0408 38.8771 80.0522C41.6532 83.0672 45.0068 85 48.7648 85L48.7648 81ZM60.7381 69.1437C59.0765 73.0089 57.1165 76.0242 55.0252 78.045C52.9437 80.0565 50.8284 81 48.7648 81L48.7648 85C52.1455 85 55.2066 83.4322 57.8048 80.9214C60.3933 78.4201 62.6165 74.9022 64.4129 70.7235L60.7381 69.1437ZM76.3862 81C74.3226 81 72.2073 80.0565 70.1258 78.045C68.0345 76.0242 66.0745 73.0089 64.4129 69.1437L60.7381 70.7235C62.5345 74.9022 64.7577 78.4201 67.3462 80.9214C69.9445 83.4323 73.0055 85 76.3862 85L76.3862 81ZM89.4071 66.4817C87.7283 71.1465 85.6306 74.8453 83.3315 77.3425C81.0358 79.836 78.674 81 76.3862 81L76.3862 85C80.1444 85 83.4981 83.067 86.2742 80.0518C89.0471 77.0401 91.3777 72.8185 93.1708 67.8362L89.4071 66.4817ZM106.192 81C103.904 81 101.542 79.836 99.2463 77.3424C96.9472 74.8453 94.8495 71.1465 93.1708 66.4818L89.4071 67.8362C91.2001 72.8185 93.5308 77.0401 96.3036 80.0518C99.0798 83.067 102.433 85 106.192 85L106.192 81ZM106.89 80.9642C106.659 80.988 106.426 81 106.192 81L106.192 85C106.563 85 106.932 84.981 107.298 84.9434L106.89 80.9642ZM107.997 81C107.763 81 107.53 80.988 107.298 80.9642L106.89 84.9434C107.257 84.981 107.626 85 107.997 85L107.997 81ZM119.97 69.1437C118.309 73.0089 116.349 76.0242 114.257 78.045C112.176 80.0564 110.061 81 107.997 81L107.997 85C111.378 85 114.439 83.4322 117.037 80.9214C119.625 78.42 121.849 74.9022 123.645 70.7235L119.97 69.1437ZM135.618 81C133.555 81 131.439 80.0564 129.358 78.045C127.267 76.0242 125.307 73.0089 123.645 69.1437L119.97 70.7235C121.767 74.9022 123.99 78.4201 126.578 80.9214C129.177 83.4322 132.238 85 135.618 85L135.618 81ZM148.639 66.4817C146.96 71.1465 144.863 74.8453 142.564 77.3424C140.268 79.836 137.906 81 135.618 81L135.618 85C139.377 85 142.73 83.067 145.506 80.0518C148.279 77.0401 150.61 72.8185 152.403 67.8362L148.639 66.4817ZM165.424 81C163.136 81 160.774 79.836 158.478 77.3424C156.179 74.8453 154.082 71.1465 152.403 66.4817L148.639 67.8362C150.432 72.8185 152.763 77.0401 155.536 80.0518C158.312 83.067 161.666 85 165.424 85L165.424 81ZM178.354 66.7328C176.674 71.3231 174.588 74.9575 172.307 77.4094C170.03 79.857 167.691 81 165.424 81L165.424 85C169.148 85 172.475 83.1018 175.236 80.1338C177.993 77.1701 180.315 73.0145 182.11 68.1071L178.354 66.7328Z" fill="black" mask="url(#path-1-inside-1)"/>
</svg>
