<svg width="523" height="447" viewBox="0 0 523 447" fill="none" xmlns="http://www.w3.org/2000/svg">
<line y1="-12.5" x2="447" y2="-12.5" transform="matrix(0 -1 -1 0 0 447)" stroke="black" stroke-width="25"/>
<line y1="-12.5" x2="447" y2="-12.5" transform="matrix(0 -1 -1 0 55.3333 447)" stroke="black" stroke-width="25"/>
<line y1="-12.5" x2="447" y2="-12.5" transform="matrix(0 -1 -1 0 110.667 447)" stroke="black" stroke-width="25"/>
<line y1="-12.5" x2="447" y2="-12.5" transform="matrix(0 -1 -1 0 166 447)" stroke="black" stroke-width="25"/>
<line y1="-12.5" x2="447" y2="-12.5" transform="matrix(0 -1 -1 0 221.333 447)" stroke="black" stroke-width="25"/>
<line y1="-12.5" x2="447" y2="-12.5" transform="matrix(0 -1 -1 0 276.667 447)" stroke="black" stroke-width="25"/>
<line y1="-12.5" x2="447" y2="-12.5" transform="matrix(0 -1 -1 0 332 447)" stroke="black" stroke-width="25"/>
<line y1="-12.5" x2="447" y2="-12.5" transform="matrix(0 -1 -1 0 387.333 447)" stroke="black" stroke-width="25"/>
<line y1="-12.5" x2="447" y2="-12.5" transform="matrix(0 -1 -1 0 442.667 447)" stroke="black" stroke-width="25"/>
<line y1="-12.5" x2="447" y2="-12.5" transform="matrix(0 -1 -1 0 498 447)" stroke="black" stroke-width="25"/>
</svg>
