<?xml version="1.0" encoding="UTF-8"?>
<svg width="276px" height="276px" viewBox="0 0 276 276" version="1.1" xmlns="http://www.w3.org/2000/svg" xmlns:xlink="http://www.w3.org/1999/xlink">
    <!-- Generator: Sketch 47.1 (45422) - http://www.bohemiancoding.com/sketch -->
    <title>Logo</title>
    <desc>Created with Sketch.</desc>
    <defs></defs>
    <g id="Wedding-site" stroke="none" stroke-width="1" fill="none" fill-rule="evenodd">
        <g id="Desktop-HD-Copy-6" transform="translate(-582.000000, -323.000000)">
            <g id="Logo" transform="translate(582.000000, 323.000000)">
                <g id="Group" transform="translate(4.000000, 1.000000)">
                    <ellipse id="Oval-2" stroke="#979797" fill="#FFFFFF" opacity="0.709805254" cx="134.700334" cy="136.363797" rx="134.136964" ry="135.379109"></ellipse>
                    <path d="M64.6794689,20.9671928 C4.82397935,59.7509373 -12.1876272,139.605402 26.6829822,199.327131 C65.5535916,259.04886 145.586908,276.02245 205.442397,237.238706 C265.297887,198.454962 282.309493,118.600497 243.438884,58.878768 C204.568275,-0.842961271 124.534958,-17.8165516 64.6794689,20.9671928 Z" id="Oval"></path>
                    <path d="M24.6164866,167.280101 C29.7654387,165.409362 34.4294895,165.355084 36.3239554,170.547042 C38.2184214,175.739001 34.5813706,178.607868 29.4324184,180.478606 C24.3382424,182.329444 19.7041042,182.4657 17.8096383,177.273742 C15.9151723,172.081783 19.5223105,169.130938 24.6164866,167.280101 Z M25.8428235,170.641161 C22.5836463,171.825299 20.1588608,173.51095 21.0961229,176.079603 C22.0134433,178.593605 24.9567142,178.328911 28.2158914,177.144773 C31.5024565,175.950684 33.9546301,174.255083 33.0373097,171.741081 C32.1000476,169.172428 29.1293887,169.447073 25.8428235,170.641161 Z M36.6626756,185.874386 C35.668639,186.361687 35.1653217,187.51571 35.7694816,188.742478 C36.360787,189.943144 37.5844043,190.185775 38.5522821,189.711297 C39.4678422,189.262467 39.9711595,188.108444 39.3927086,186.933879 C38.8142576,185.759315 37.5782357,185.425556 36.6626756,185.874386 Z M29.1343395,188.25783 C27.5648079,189.027253 26.9510061,191.077917 27.7865464,192.77451 C28.6092322,194.445002 30.6113164,195.213294 32.1808479,194.443871 C33.645744,193.725743 34.3632814,191.753837 33.579159,190.161649 L33.3477786,189.691824 C32.5636562,188.099636 30.5730767,187.552525 29.1343395,188.25783 Z M35.2797286,182.788808 C37.8432968,181.532084 41.0286352,182.724809 42.4169175,185.543764 C43.7923454,188.336618 42.8051207,191.607239 40.2415525,192.863964 C39.038245,193.453855 37.7999735,193.445229 36.6818914,193.02125 C36.5509037,194.997241 35.4831462,196.719594 33.6258672,197.630078 C30.4083275,199.207396 26.4431725,197.68409 24.7335285,194.212598 C23.0110301,190.715006 24.2253293,186.652604 27.442869,185.075286 C29.3263069,184.151978 31.3319904,184.400057 32.9669507,185.477934 C33.3266192,184.361928 34.1025799,183.365876 35.2797286,182.788808 Z M34.0603483,200.985592 C33.0093306,201.718825 32.8462151,203.110087 33.5476865,204.111089 C34.2825612,205.159758 35.6481989,205.4845 36.6992167,204.751267 C37.7502344,204.018035 37.9133498,202.626773 37.1784751,201.578104 C36.4770038,200.577102 35.1113661,200.25236 34.0603483,200.985592 Z M43.9246013,205.562563 C48.0736494,201.990674 52.4151654,200.288678 56.0324636,204.471954 C59.6497619,208.655229 57.2692023,212.625002 53.1201542,216.19689 C49.0152449,219.73078 44.7308442,221.498828 41.1135459,217.315552 C37.4962476,213.132276 39.819692,209.096452 43.9246013,205.562563 Z M46.2663816,208.270482 C43.6401224,210.531411 41.9723195,212.965801 43.7619302,215.035422 C45.5134641,217.061008 48.1712645,215.771514 50.7975237,213.510585 C53.4458523,211.230656 55.1357246,208.777267 53.3841907,206.751681 C51.59458,204.68206 48.9147102,205.990553 46.2663816,208.270482 Z M60.9577437,218.522165 C59.7632739,219.590217 59.6889936,221.398766 60.7806856,222.57065 C61.8723776,223.742534 63.7052027,223.838012 64.879442,222.749021 C66.0754149,221.598728 66.1084828,219.789419 65.0370213,218.638475 C63.9453293,217.466591 62.131983,217.433173 60.9577437,218.522165 Z M58.0857646,224.567729 C56.0222601,222.431842 55.7407208,218.662847 58.6774464,215.878687 C61.2986908,213.438356 65.0669964,213.651772 67.7359108,216.498102 C70.1418296,219.072211 70.2188098,222.755167 67.5660619,225.791368 C63.609425,230.243247 57.6131494,234.63697 53.0066224,229.53367 C51.5320552,227.881683 50.5183401,225.826844 51.685938,222.845543 L54.9791122,224.243103 C54.5017263,225.55061 54.812637,226.584702 55.5004718,227.296664 C57.4021328,229.26503 60.2473538,228.103996 62.329079,225.859395 C61.3729265,226.294254 59.5018951,226.033534 58.0857646,224.567729 Z M63.8624144,232.494205 C63.1202711,233.537765 63.4362652,234.90257 64.4346224,235.609396 C65.4805204,236.349881 66.8759956,236.196779 67.6181389,235.153218 C68.3602822,234.109658 68.044288,232.744853 66.99839,232.004368 C66.0000329,231.297542 64.6045576,231.450644 63.8624144,232.494205 Z M80.1583941,246.103201 L69.2534896,240.687044 L70.0722395,239.046781 L81.196542,234.174893 C82.1474655,233.769942 82.9678512,233.235175 83.3577321,232.454098 C83.9295574,231.308518 83.3800675,229.930919 81.9191233,229.205309 C80.5364441,228.518572 78.9599791,229.002722 78.0234951,230.357075 L75.3223469,228.333187 C77.3645519,225.481103 80.5698509,224.668774 83.5960923,226.171823 C86.5962455,227.661914 88.0610388,230.988689 86.5405033,234.03489 C85.7217534,235.675153 84.2114233,236.809473 82.5439861,237.475875 L75.9134179,240.193433 L81.6789296,243.057 L80.1583941,246.103201 Z M87.485697,239.122394 C89.4607018,234.022072 92.4879381,230.480746 97.6535336,232.47112 C102.819129,234.461494 102.592189,239.081812 100.617185,244.182134 C98.6631905,249.228197 95.7175162,252.800949 90.5519207,250.810575 C85.3863251,248.820201 85.5317029,244.168457 87.485697,239.122394 Z M90.8298525,240.410851 C89.5797165,243.639246 89.2570637,246.570292 91.8126741,247.555003 C94.3139099,248.518763 96.0503046,246.132452 97.3004406,242.904056 C98.561082,239.648532 98.8942401,236.690357 96.3930044,235.726597 C93.837394,234.741886 92.0904939,237.155326 90.8298525,240.410851 Z M105.703467,237.882832 L104.981684,240.999862 L108.394201,240.4725 L105.159302,254.442458 L108.652282,255.246934 L112.996102,236.488085 L105.703467,237.882832 Z M119.934508,243.324084 C119.856808,244.426536 120.603399,245.440616 121.969869,245.535772 C123.307265,245.628903 124.132705,244.695138 124.20836,243.621699 C124.279925,242.606283 123.533334,241.592202 122.225012,241.501096 C120.91669,241.40999 120.006073,242.308669 119.934508,243.324084 Z M118.082769,250.883301 C117.960086,252.624014 119.427836,254.183935 121.317635,254.315533 C123.178359,254.445107 124.850582,253.10384 124.973265,251.363128 C125.08777,249.738463 123.740404,248.128616 121.966901,248.005116 L121.443572,247.968673 C119.670069,247.845173 118.195229,249.287648 118.082769,250.883301 Z M116.456251,242.82615 C116.656634,239.982985 119.291487,237.834125 122.43146,238.05278 C125.542359,238.269411 127.87913,240.764476 127.678747,243.60764 C127.58469,244.942186 126.954588,246.00617 126.025121,246.757765 C127.670956,247.86362 128.626049,249.65023 128.480873,251.710074 C128.229373,255.278535 124.916046,257.93408 121.049228,257.66481 C117.153335,257.393516 114.244864,254.304709 114.496365,250.736248 C114.643585,248.647393 115.866984,247.041638 117.622786,246.17266 C116.836897,245.301614 116.364239,244.131684 116.456251,242.82615 Z M139.018752,247.832298 L145.755795,247.762905 L145.742485,244.796664 L139.005442,244.866057 L139.018752,247.832298 Z M164.320536,255.752545 L158.964645,236.442946 L162.560214,235.448744 L167.029934,251.56343 L174.501975,249.497353 L175.388146,252.692265 L164.320536,255.752545 Z M177.314787,240.177284 C178.399446,243.678084 181.969992,245.651132 185.450787,244.577486 C188.903736,243.512429 190.76323,239.864494 189.678571,236.363693 C188.593912,232.862893 184.986911,230.87065 181.533963,231.935707 C178.053168,233.009353 176.230128,236.676483 177.314787,240.177284 Z M173.7783,241.268108 C172.091052,235.822419 174.991417,230.118383 180.449304,228.434906 C185.90719,226.751429 191.555658,229.81859 193.242905,235.26428 C194.912936,240.654401 191.993333,246.39481 186.535446,248.078287 C181.07756,249.761764 175.44833,246.65823 173.7783,241.268108 Z M211.759646,210.415949 L221.094842,219.808658 L224.0136,216.920192 C226.539051,214.420953 225.709051,211.065714 223.164954,208.505943 C220.60034,205.925528 217.203856,205.028243 214.678405,207.527483 L211.759646,210.415949 Z M226.310788,219.246742 L220.742376,224.757361 L206.606223,210.534115 L212.174635,205.023497 C216.252616,200.987839 221.690001,201.748982 225.711316,205.795072 C229.712114,209.820519 230.38877,215.211085 226.310788,219.246742 Z M229.819235,199.309051 C233.070602,201.00816 236.990352,199.8703 238.683003,196.648851 C240.362112,193.453174 239.082896,189.565574 235.831529,187.866465 C232.580163,186.167356 228.621066,187.317503 226.941957,190.51318 C225.249306,193.734629 226.567868,197.609942 229.819235,199.309051 Z M228.104211,202.581707 C223.04653,199.938648 221.041223,193.864966 223.695299,188.813735 C226.349375,183.762503 232.511831,181.924307 237.569512,184.567365 C242.575584,187.183454 244.593154,193.296392 241.939078,198.347624 C239.285002,203.398856 233.110283,205.197795 228.104211,202.581707 Z M236.373268,163.352639 L254.847172,171.192683 L253.510641,174.324193 L238.32591,176.289063 L250.472032,181.443693 L249.021268,184.842853 L230.547364,177.002808 L231.906741,173.817769 L246.92314,171.876299 L234.91108,166.778564 L236.373268,163.352639 Z M202.518651,213.988082 L215.149463,229.583403 L212.499221,231.720898 L198.169448,226.326976 L206.473886,236.580504 L203.597128,238.900691 L190.966317,223.30537 L193.661862,221.131336 L207.832019,226.466892 L199.619242,216.326538 L202.518651,213.988082 Z" id="08.09.2018---london" fill="#3F524F" transform="translate(136.072419, 210.518121) rotate(0.500000) translate(-136.072419, -210.518121) "></path>
                </g>
                <path d="M84.7625755,141.24 L93,153 L86.7987928,153 L79.1167002,141.846667 L75.6458753,141.846667 L75.6458753,153 L70,153 L70,125 L80.9215292,125 C87.4929577,125 90.3158954,128.92 90.3158954,133.446667 C90.3158954,137.226667 88.3259557,140.213333 84.7625755,141.24 Z M75.6458753,129.06 L75.6458753,137.833333 L79.9959759,137.833333 C83.5130785,137.833333 84.7625755,135.966667 84.7625755,133.493333 C84.7625755,130.973333 83.5130785,129.06 79.9959759,129.06 L75.6458753,129.06 Z" id="R" fill="#3F524F"></path>
                <polygon id="E" fill="#3F524F" points="203 153 203 148.566667 189.928389 148.566667 189.928389 140.446667 200.570332 140.446667 200.570332 136.013333 189.928389 136.013333 189.928389 129.433333 203 129.433333 203 125 184 125 184 153"></polygon>
                <path d="M148.223209,89.0613675 L142.786609,82.677756 L131.762303,82.677756 L126.006193,89.0450632 L137.495285,97.1958803 L148.223209,89.0613675 Z M119,89.8132329 L129.679282,78 L144.953151,78 L155,89.7969286 L137.587582,103 L119,89.8132329 Z" id="Page-1" fill="#3F524F" fill-rule="nonzero"></path>
                <path d="M148.223209,89.0613675 L142.786609,82.677756 L131.762303,82.677756 L126.006193,89.0450632 L137.495285,97.1958803 L148.223209,89.0613675 Z M119,89.8132329 L129.679282,78 L144.953151,78 L155,89.7969286 L137.587582,103 L119,89.8132329 Z" id="Page-1" fill="#3F524F" fill-rule="nonzero"></path>
                <path d="M137,161 C119.879173,161 106,147.120827 106,130 C106,112.879173 119.879173,99 137,99 C154.120827,99 168,112.879173 168,130 C168,147.120827 154.120827,161 137,161 Z M137,156.320755 C151.536551,156.320755 163.320755,144.536551 163.320755,130 C163.320755,115.463449 151.536551,103.679245 137,103.679245 C122.463449,103.679245 110.679245,115.463449 110.679245,130 C110.679245,144.536551 122.463449,156.320755 137,156.320755 Z" id="Oval" fill="#3F524F" fill-rule="nonzero"></path>
                <path d="M137,190 C119.879173,190 106,176.120827 106,159 C106,141.879173 119.879173,128 137,128 C154.120827,128 168,141.879173 168,159 C168,176.120827 154.120827,190 137,190 Z M137,185.320755 C151.536551,185.320755 163.320755,173.536551 163.320755,159 C163.320755,144.463449 151.536551,132.679245 137,132.679245 C122.463449,132.679245 110.679245,144.463449 110.679245,159 C110.679245,173.536551 122.463449,185.320755 137,185.320755 Z" id="Oval" fill="#3F524F" fill-rule="nonzero"></path>
                <path d="M136.5,232 C85.4136606,232 44,190.586339 44,139.5 C44,88.4136606 85.4136606,47 136.5,47 C187.586339,47 229,88.4136606 229,139.5 C229,190.586339 187.586339,232 136.5,232 Z M136.5,227.345912 C185.015958,227.345912 224.345912,188.015958 224.345912,139.5 C224.345912,90.9840425 185.015958,51.6540881 136.5,51.6540881 C87.9840425,51.6540881 48.6540881,90.9840425 48.6540881,139.5 C48.6540881,188.015958 87.9840425,227.345912 136.5,227.345912 Z" id="Oval" fill="#3F524F" fill-rule="nonzero"></path>
                <path d="M138,276 C61.7847045,276 0,214.215295 0,138 C0,61.7847045 61.7847045,0 138,0 C214.215295,0 276,61.7847045 276,138 C276,214.215295 214.215295,276 138,276 Z M138,271.341772 C211.642627,271.341772 271.341772,211.642627 271.341772,138 C271.341772,64.3573727 211.642627,4.65822785 138,4.65822785 C64.3573727,4.65822785 4.65822785,64.3573727 4.65822785,138 C4.65822785,211.642627 64.3573727,271.341772 138,271.341772 Z" id="Oval" fill="#3F524F" fill-rule="nonzero"></path>
                <g id="Group-2" transform="translate(22.000000, 16.000000)">
                    <path d="M30.3538916,184.137269 C-2.44005213,137.302664 8.94215305,72.7509702 55.7767584,39.9570264 C102.611364,7.1630827 167.163057,18.5452879 199.957001,65.3798933 C232.750945,112.214499 221.368739,176.766192 174.534134,209.560136 C127.699529,242.354079 63.1478354,230.971874 30.3538916,184.137269 Z" id="Oval"></path>
                    <path d="M6.9179198,69.9835601 L4.99625461,73.8241063 L10.8382122,76.7472026 L12.705746,73.0148408 C13.6124471,71.2027521 12.5038512,69.6335294 11.1245001,68.9433538 C9.77219506,68.2667112 7.78402242,68.2526097 6.9179198,69.9835601 Z M16.5689055,72.6687464 L25.7122127,71.2918462 L23.6281533,75.4569455 L14.8095365,76.5228646 L14.0922953,77.9563079 L20.7185898,81.271857 L18.9863845,84.7337578 L0.351621692,75.4096218 L4.08668924,67.9448982 C6.14368295,63.833891 10.0660341,63.496903 13.0951973,65.0125826 C15.7727612,66.3523351 17.6789916,69.0984651 16.5689055,72.6687464 Z M36.0125432,56.8162104 L30.7865733,55.4643563 L26.3093962,61.8177222 L29.3403299,66.2844561 L26.9710844,69.6465486 L14.4327286,51.2654458 L16.8368159,47.8539108 L38.3643677,53.4788392 L36.0125432,56.8162104 Z M19.0930842,52.2765441 L24.1139993,58.9595545 L27.110398,54.7074964 L19.0930842,52.2765441 Z M46.6626118,38.485273 L50.4474173,38.367393 C50.6008838,41.5102124 49.2186816,44.7018278 46.3832204,46.9181829 C41.7130489,50.56865 35.1537623,49.5924423 31.5405447,44.9699256 C27.8900776,40.2997542 28.5452922,33.7226744 33.2154637,30.0722072 C36.0032701,27.8931018 39.3731268,27.293471 42.3486323,28.1536557 L41.2778497,31.7927892 C39.3562622,31.2987574 37.2084691,31.5957105 35.4690685,32.9553232 C32.4906428,35.2834273 32.1878492,39.5122118 34.5904526,42.5859471 C36.9744312,45.635855 41.1511899,46.3631709 44.1296156,44.0350668 C45.8928436,42.6568292 46.7525062,40.5646011 46.6626118,38.485273 Z M55.7974517,14.7401576 L59.1251274,12.7037572 L70.0017154,30.4771568 L66.6740397,32.5135572 L62.1750156,25.1617155 L55.0553374,29.5186651 L59.5543615,36.8705068 L56.2782777,38.875335 L45.4016897,21.1019354 L48.6777735,19.0971072 L53.2399418,26.5521325 L60.35962,22.1951829 L55.7974517,14.7401576 Z M87.1931192,24.2995418 L83.9131585,20.0123365 L76.470494,22.2522289 L76.1015219,27.6375916 L72.1629912,28.8229043 L73.6296121,6.62100509 L77.6260623,5.41826129 L91.10269,23.1229446 L87.1931192,24.2995418 Z M76.5343357,10.6416569 L76.3649397,18.9989005 L81.3460225,17.4998286 L76.5343357,10.6416569 Z M93.4529582,22.5988353 L91.3718124,1.86570409 L104.190846,0.578957967 L104.535186,4.00940348 L95.5377896,4.9125422 L96.0784646,10.2989435 L103.962471,9.50756442 L104.303791,12.9079183 L96.4197846,13.6992974 L96.9302543,18.7847824 L106.228567,17.8514384 L106.572908,21.2818839 L93.4529582,22.5988353 Z M111.471309,20.9422957 L123.386962,20.9167566 L123.379572,17.4690802 L115.334994,17.4863224 L115.297723,0.0967267355 L111.426648,0.105023701 L111.471309,20.9422957 Z M141.965063,14.4014052 C139.323898,13.7435706 137.93186,15.578532 137.727637,16.8990054 C137.509123,18.6522546 138.463914,20.0744027 140.430115,20.5641241 C142.278931,21.0246083 144.427318,20.1572007 145.129008,17.3399578 L145.633348,15.3150644 L141.965063,14.4014052 Z M138.884903,23.8381427 C134.981847,22.8660093 132.749128,19.5672278 133.626241,16.0456742 C134.23291,13.6099329 135.845209,12.0168327 138.155382,11.6260564 C137.046987,10.6954858 136.495407,9.03093057 136.955891,7.18211492 C137.664891,4.33552574 140.655918,2.46248939 143.971939,3.16374293 C146.341569,3.66044599 148.030017,5.26532598 148.78724,7.2304349 L145.304089,8.32639535 C144.988043,7.59317509 144.459373,6.96283058 143.549639,6.73624309 C142.052978,6.36347013 140.990186,7.25193211 140.719742,8.33774447 C140.580866,8.89532379 140.487265,10.8978526 142.541505,11.4095017 L146.092405,12.2939239 L146.691765,9.88752888 L150.037241,10.7207861 L149.437881,13.1271811 L151.873622,13.7338508 L151.150004,16.6391325 L148.714262,16.0324628 L147.881005,19.3779387 C147.318191,21.6376023 147.539107,22.6276298 149.945502,23.2269903 L149.156101,26.3963885 C146.346167,25.665352 144.680302,24.7205995 144.443784,22.667015 C143.176004,24.0030896 140.704372,24.2913177 138.884903,23.8381427 Z M159.872258,30.5463111 L170.442918,12.5892778 L181.545525,19.1249834 L179.796534,22.0961036 L172.003859,17.508836 L169.257635,22.174016 L176.085999,26.1936283 L174.352349,29.138686 L167.523985,25.1190737 L164.931182,29.523629 L172.984481,34.2643169 L171.23549,37.235437 L159.872258,30.5463111 Z M189.169146,29.6551031 L180.124051,40.0251296 L183.337619,42.8281152 C186.118154,45.2533936 189.536113,44.1413235 192.00115,41.3152064 C194.486066,38.466298 195.16325,34.8833671 192.382715,32.4580887 L189.169146,29.6551031 Z M180.920928,45.5738968 L174.790078,40.2263569 L188.486937,24.5231739 L194.617787,29.8707139 C199.107667,33.7869421 198.723972,39.4718758 194.827623,43.9389642 C190.951153,48.3832612 185.410808,49.490125 180.920928,45.5738968 Z M206.35365,47.1433251 L195.344926,55.3991823 L197.903334,58.8106773 C200.116993,61.7624672 203.691712,61.3875986 206.691892,59.1376507 C209.716267,56.869558 211.125717,53.50661 208.912059,50.55482 L206.35365,47.1433251 Z M194.976737,61.0186746 L190.095802,54.5102197 L206.766157,42.008493 L211.647092,48.5169479 C215.221606,53.2833628 213.660856,58.763304 208.918637,62.3196733 C204.200612,65.8578978 198.551251,65.7850895 194.976737,61.0186746 Z M206.285881,79.8612508 L204.570713,76.2899541 L213.130921,72.1787894 L219.897578,60.071842 L221.887695,64.2156367 L216.980757,72.5105899 L226.548761,73.9208399 L228.551972,78.0918963 L214.791564,75.7762719 L206.285881,79.8612508 Z" id="rachael-&amp;-eddy" fill="#3F524F"></path>
                </g>
                <path d="M84.7625755,141.24 L93,153 L86.7987928,153 L79.1167002,141.846667 L75.6458753,141.846667 L75.6458753,153 L70,153 L70,125 L80.9215292,125 C87.4929577,125 90.3158954,128.92 90.3158954,133.446667 C90.3158954,137.226667 88.3259557,140.213333 84.7625755,141.24 Z M75.6458753,129.06 L75.6458753,137.833333 L79.9959759,137.833333 C83.5130785,137.833333 84.7625755,135.966667 84.7625755,133.493333 C84.7625755,130.973333 83.5130785,129.06 79.9959759,129.06 L75.6458753,129.06 Z" id="R" fill="#3F524F"></path>
                <polygon id="E" fill="#3F524F" points="203 153 203 148.566667 189.928389 148.566667 189.928389 140.446667 200.570332 140.446667 200.570332 136.013333 189.928389 136.013333 189.928389 129.433333 203 129.433333 203 125 184 125 184 153"></polygon>
                <path d="M20.2206771,123.562017 C19.5562758,123.562017 18.8635878,123.76422 18.1619906,124.163324 C16.8677109,124.900318 16.6797274,126.233094 16.7496644,127.221571 C16.9516798,130.073858 19.5814442,133.980034 25.0013379,136.30615 C30.4196726,133.980476 33.048546,130.074963 33.2503387,127.222455 C33.3202757,126.233757 33.1320695,124.900318 31.8368988,124.163324 C31.1332971,123.762895 30.4392727,123.560028 29.7742032,123.560028 C27.6611707,123.560028 26.2105351,125.652117 26.1960577,125.673332 C25.9298962,126.068679 25.4837695,126.305799 25.0035652,126.306904 C24.5222473,126.306904 24.0758979,126.07111 23.8079546,125.675984 C23.7939226,125.655432 22.3397233,123.562017 20.2206771,123.562017 M25.0014419,140 C24.8044063,140 24.6112107,139.96333 24.4273748,139.890466 C21.0268913,138.54129 18.1488761,136.543004 16.1046021,134.111344 C14.2765632,131.937089 13.1814679,129.492094 13.0211515,127.226879 C12.8293958,124.521621 13.9484906,122.270216 16.0918824,121.050814 C17.3177748,120.353605 18.5727066,120 19.8213985,120 C22.0996672,120 23.8720273,121.158206 25.0014419,122.194971 C26.1306165,121.158206 27.9024966,120 30.1802853,120 C31.4282572,120 32.682469,120.353605 33.9076414,121.050814 C36.0512732,122.270454 37.170608,124.521859 36.9788523,127.227831 C36.8185359,129.493047 35.7239206,131.937804 33.8961217,134.111582 C31.8523277,136.543242 28.9752724,138.54129 25.5762289,139.890228 C25.3933531,139.963092 25.1996774,140 25.0014419,140" id="Fill-1" fill="#3F524F"></path>
                <path d="M244.220677,123.562017 C243.556276,123.562017 242.863588,123.76422 242.161991,124.163324 C240.867711,124.900318 240.679727,126.233094 240.749664,127.221571 C240.95168,130.073858 243.581444,133.980034 249.001338,136.30615 C254.419673,133.980476 257.048546,130.074963 257.250339,127.222455 C257.320276,126.233757 257.132069,124.900318 255.836899,124.163324 C255.133297,123.762895 254.439273,123.560028 253.774203,123.560028 C251.661171,123.560028 250.210535,125.652117 250.196058,125.673332 C249.929896,126.068679 249.483769,126.305799 249.003565,126.306904 C248.522247,126.306904 248.075898,126.07111 247.807955,125.675984 C247.793923,125.655432 246.339723,123.562017 244.220677,123.562017 M249.001442,140 C248.804406,140 248.611211,139.96333 248.427375,139.890466 C245.026891,138.54129 242.148876,136.543004 240.104602,134.111344 C238.276563,131.937089 237.181468,129.492094 237.021151,127.226879 C236.829396,124.521621 237.948491,122.270216 240.091882,121.050814 C241.317775,120.353605 242.572707,120 243.821398,120 C246.099667,120 247.872027,121.158206 249.001442,122.194971 C250.130616,121.158206 251.902497,120 254.180285,120 C255.428257,120 256.682469,120.353605 257.907641,121.050814 C260.051273,122.270454 261.170608,124.521859 260.978852,127.227831 C260.818536,129.493047 259.723921,131.937804 257.896122,134.111582 C255.852328,136.543242 252.975272,138.54129 249.576229,139.890228 C249.393353,139.963092 249.199677,140 249.001442,140" id="Fill-1" fill="#3F524F"></path>
            </g>
        </g>
    </g>
</svg>